# xmcd CD database file
# Copyright (C) 1996 Ti Kan
#
# Track frame offsets:
#  150
#  19632
#  40357
#  65637
#  89200
#  118482
#  136097
#  158515
#  182265
#  204805
#  228510
#  239132
#  253572
#  267025
#
# Disc length: 3716 seconds
#
# Revision: 2
# Processed by: cddbd v1.4b41PL1 Copyright (c) Steve Scherf et al.
# Submitted via: CDWizzard Release:4.12
#
DISCID=bf0e820e
DTITLE=Earl Hooker - Two Bugs And A Roach
DYEAR=1900
DGENRE=
TTITLE0=Two Bugs And A Roach
TTITLE1=Wah Wah Blues
TTITLE2=You Don't Love Me
TTITLE3=Earl Hooker Blues
TTITLE4=Anna Lee
TTITLE5=Off The Hook
TTITLE6=Love Ain't A Plaything
TTITLE7=You Don't Want Me
TTITLE8=The Hook
TTITLE9=New Sweet Black Angel
TTITLE10=I'm Going Down The Line
TTITLE11=Sweet Black Angel
TTITLE12=Guitar Rag
TTITLE13=Earl's Boogie Woogie
EXTD=
EXTT0=
EXTT1=
EXTT2=
EXTT3=
EXTT4=
EXTT5=
EXTT6=
EXTT7=
EXTT8=
EXTT9=
EXTT10=
EXTT11=
EXTT12=
EXTT13=
PLAYORDER=
